<svg width="154" height="103" viewBox="0 0 154 103" fill="none" xmlns="http://www.w3.org/2000/svg">
<rect x="1" y="1" width="152" height="101" rx="14" fill="#0E0E30" stroke="url(#paint0_linear_8_100)" stroke-width="2"/>
<g clip-path="url(#clip0_8_100)">
<path d="M57.9992 48.2885V55.4121H96.0008V48.2885H57.9992ZM77 16.2324C56.0231 16.2324 38.9984 32.1892 38.9984 51.8503C38.9984 71.5114 56.0231 87.4682 77 87.4682C97.9769 87.4682 115.002 71.5114 115.002 51.8503C115.002 32.1892 97.9769 16.2324 77 16.2324ZM77 80.3447C60.2413 80.3447 46.5987 67.5578 46.5987 51.8503C46.5987 36.1428 60.2413 23.356 77 23.356C93.7587 23.356 107.401 36.1428 107.401 51.8503C107.401 67.5578 93.7587 80.3447 77 80.3447Z" fill="url(#paint1_linear_8_100)"/>
</g>
<defs>
<linearGradient id="paint0_linear_8_100" x1="77" y1="0" x2="77" y2="103" gradientUnits="userSpaceOnUse">
<stop stop-color="#008CFF"/>
<stop offset="1" stop-color="#9900DD"/>
</linearGradient>
<linearGradient id="paint1_linear_8_100" x1="77" y1="16.2324" x2="77" y2="87.4682" gradientUnits="userSpaceOnUse">
<stop stop-color="#008CFF"/>
<stop offset="1" stop-color="#9900DD"/>
</linearGradient>
<clipPath id="clip0_8_100">
<rect width="91.2039" height="85.483" fill="white" transform="translate(31.3981 9.10884)"/>
</clipPath>
</defs>
</svg>
