<svg width="154" height="103" viewBox="0 0 154 103" fill="none" xmlns="http://www.w3.org/2000/svg">
<rect x="1" y="1" width="152" height="101" rx="14" fill="#0E0E30" stroke="url(#paint0_linear_8_95)" stroke-width="2"/>
<g clip-path="url(#clip0_8_95)">
<path d="M80.8375 34.0414H73.1626V48.2885H57.8129V55.4121H73.1626V69.6593H80.8375V55.4121H96.1871V48.2885H80.8375V34.0414ZM77 16.2324C55.8175 16.2324 38.6259 32.1892 38.6259 51.8503C38.6259 71.5114 55.8175 87.4682 77 87.4682C98.1826 87.4682 115.374 71.5114 115.374 51.8503C115.374 32.1892 98.1826 16.2324 77 16.2324ZM77 80.3447C60.077 80.3447 46.3007 67.5578 46.3007 51.8503C46.3007 36.1428 60.077 23.356 77 23.356C93.9231 23.356 107.699 36.1428 107.699 51.8503C107.699 67.5578 93.9231 80.3447 77 80.3447Z" fill="url(#paint1_linear_8_95)"/>
</g>
<defs>
<linearGradient id="paint0_linear_8_95" x1="77" y1="103" x2="77" y2="1.20376e-06" gradientUnits="userSpaceOnUse">
<stop stop-color="#9900DD"/>
<stop offset="1" stop-color="#008CFF"/>
</linearGradient>
<linearGradient id="paint1_linear_8_95" x1="77" y1="16.2324" x2="77" y2="87.4682" gradientUnits="userSpaceOnUse">
<stop stop-color="#008CFF"/>
<stop offset="1" stop-color="#9900DD"/>
</linearGradient>
<clipPath id="clip0_8_95">
<rect width="92.098" height="85.483" fill="white" transform="translate(30.951 9.10884)"/>
</clipPath>
</defs>
</svg>
