<svg width="226" height="230" viewBox="0 0 226 230" fill="none" xmlns="http://www.w3.org/2000/svg">
<g clip-path="url(#clip0_9_2)">
<path fill-rule="evenodd" clip-rule="evenodd" d="M226 115C226 178.513 175.408 230 113 230C50.5918 230 0 178.513 0 115C0 51.4873 50.5918 0 113 0C175.408 0 226 51.4873 226 115ZM78.1201 171C77.8267 171 77.5801 170.9 77.3801 170.7C77.1801 170.5 77.0801 170.253 77.0801 169.96V156.42C77.0801 156.113 77.1801 155.867 77.3801 155.68C77.5801 155.48 77.8267 155.38 78.1201 155.38C78.5201 155.38 78.8267 155.567 79.0401 155.94L84.9759 167.831L90.7601 155.94C90.9734 155.567 91.2801 155.38 91.6801 155.38C91.9734 155.38 92.2201 155.48 92.4201 155.68C92.6201 155.867 92.7201 156.113 92.7201 156.42V169.96C92.7201 170.253 92.6134 170.5 92.4001 170.7C92.2001 170.9 91.9601 171 91.6801 171C91.3867 171 91.1401 170.9 90.9401 170.7C90.7401 170.5 90.6401 170.253 90.6401 169.96V160.015L85.8001 169.88C85.5734 170.227 85.2734 170.4 84.9001 170.4C84.4601 170.4 84.1401 170.193 83.9401 169.78L79.1601 160.202V169.96C79.1601 170.253 79.0601 170.5 78.8601 170.7C78.6601 170.9 78.4134 171 78.1201 171ZM101.489 171.08C100.409 171.08 99.4552 170.847 98.6285 170.38C97.8018 169.9 97.1485 169.247 96.6685 168.42C96.2019 167.58 95.9685 166.62 95.9685 165.54C95.9685 164.447 96.2019 163.487 96.6685 162.66C97.1485 161.82 97.8018 161.167 98.6285 160.7C99.4552 160.22 100.409 159.98 101.489 159.98C102.555 159.98 103.502 160.22 104.329 160.7C105.155 161.167 105.802 161.82 106.269 162.66C106.749 163.487 106.989 164.447 106.989 165.54C106.989 166.62 106.755 167.58 106.289 168.42C105.822 169.247 105.175 169.9 104.349 170.38C103.522 170.847 102.569 171.08 101.489 171.08ZM101.489 169.28C102.182 169.28 102.795 169.12 103.329 168.8C103.862 168.48 104.275 168.04 104.569 167.48C104.875 166.92 105.029 166.273 105.029 165.54C105.029 164.807 104.875 164.16 104.569 163.6C104.275 163.027 103.862 162.58 103.329 162.26C102.795 161.94 102.182 161.78 101.489 161.78C100.795 161.78 100.182 161.94 99.6485 162.26C99.1152 162.58 98.6952 163.027 98.3885 163.6C98.0818 164.16 97.9285 164.807 97.9285 165.54C97.9285 166.273 98.0818 166.92 98.3885 167.48C98.6952 168.04 99.1152 168.48 99.6485 168.8C100.182 169.12 100.795 169.28 101.489 169.28ZM119.265 171.02C118.971 171.02 118.725 170.927 118.525 170.74C118.338 170.54 118.245 170.293 118.245 170V165.08C118.245 164.32 118.105 163.7 117.825 163.22C117.545 162.74 117.165 162.387 116.685 162.16C116.218 161.92 115.678 161.8 115.065 161.8C114.505 161.8 113.998 161.913 113.545 162.14C113.091 162.367 112.731 162.673 112.465 163.06C112.198 163.433 112.065 163.867 112.065 164.36V170C112.065 170.293 111.971 170.54 111.785 170.74C111.598 170.927 111.351 171.02 111.045 171.02C110.751 171.02 110.505 170.927 110.305 170.74C110.118 170.54 110.025 170.293 110.025 170V161.08C110.025 160.773 110.118 160.527 110.305 160.34C110.505 160.153 110.751 160.06 111.045 160.06C111.351 160.06 111.598 160.153 111.785 160.34C111.971 160.527 112.065 160.773 112.065 161.08V161.292C112.362 161 112.701 160.75 113.085 160.54C113.791 160.153 114.585 159.96 115.465 159.96C116.385 159.96 117.205 160.16 117.925 160.56C118.658 160.947 119.231 161.52 119.645 162.28C120.071 163.04 120.285 163.973 120.285 165.08V170C120.285 170.293 120.185 170.54 119.985 170.74C119.798 170.927 119.558 171.02 119.265 171.02ZM128.797 171.08C127.691 171.08 126.704 170.847 125.837 170.38C124.984 169.9 124.311 169.247 123.817 168.42C123.337 167.58 123.097 166.62 123.097 165.54C123.097 164.447 123.324 163.487 123.777 162.66C124.244 161.82 124.884 161.167 125.697 160.7C126.511 160.22 127.444 159.98 128.497 159.98C129.537 159.98 130.431 160.213 131.177 160.68C131.924 161.133 132.491 161.767 132.877 162.58C133.277 163.38 133.477 164.307 133.477 165.36C133.477 165.613 133.391 165.827 133.217 166C133.044 166.16 132.824 166.24 132.557 166.24H124.952C125.026 166.696 125.174 167.116 125.397 167.5C125.731 168.073 126.191 168.527 126.777 168.86C127.364 169.193 128.037 169.36 128.797 169.36C129.211 169.36 129.631 169.287 130.057 169.14C130.497 168.98 130.851 168.8 131.117 168.6C131.317 168.453 131.531 168.38 131.757 168.38C131.997 168.367 132.204 168.433 132.377 168.58C132.604 168.78 132.724 169 132.737 169.24C132.751 169.48 132.644 169.687 132.417 169.86C131.964 170.22 131.397 170.513 130.717 170.74C130.051 170.967 129.411 171.08 128.797 171.08ZM125.317 163.58C125.158 163.907 125.043 164.261 124.975 164.64H131.636C131.577 164.196 131.457 163.79 131.277 163.42C131.024 162.887 130.664 162.467 130.197 162.16C129.731 161.853 129.164 161.7 128.497 161.7C127.737 161.7 127.084 161.867 126.537 162.2C126.004 162.533 125.597 162.993 125.317 163.58ZM138.039 175.8C137.906 175.8 137.746 175.76 137.559 175.68C136.973 175.413 136.813 174.993 137.079 174.42L139.073 169.916L134.579 161.38C134.446 161.127 134.426 160.887 134.519 160.66C134.626 160.42 134.806 160.247 135.059 160.14C135.313 160.033 135.553 160.027 135.779 160.12C136.006 160.2 136.179 160.367 136.299 160.62L139.965 167.901L143.179 160.64C143.446 160.08 143.866 159.92 144.439 160.16C145.039 160.413 145.206 160.833 144.939 161.42L138.819 175.18C138.659 175.593 138.399 175.8 138.039 175.8ZM82.4704 193C82.2304 193 82.0171 192.927 81.8304 192.78C81.6437 192.633 81.5104 192.433 81.4304 192.18L77.4104 178.82C77.2771 178.38 77.2837 178.033 77.4304 177.78C77.5904 177.513 77.8437 177.38 78.1904 177.38C78.4171 177.38 78.6237 177.447 78.8104 177.58C78.9971 177.7 79.1304 177.893 79.2104 178.16L82.483 189.567L85.5104 178.28C85.5637 178.08 85.6837 177.913 85.8704 177.78C86.0571 177.647 86.2704 177.58 86.5104 177.58C86.7237 177.58 86.9237 177.64 87.1104 177.76C87.3104 177.867 87.4371 178.033 87.4904 178.26L90.5564 189.64L93.8704 178.06C94.0037 177.607 94.3437 177.38 94.8904 177.38C95.2637 177.38 95.5037 177.527 95.6104 177.82C95.7171 178.1 95.7171 178.433 95.6104 178.82L91.5904 192.16C91.4971 192.413 91.3571 192.62 91.1704 192.78C90.9971 192.927 90.7904 193 90.5504 193C90.2971 193 90.0771 192.92 89.8904 192.76C89.7171 192.6 89.5904 192.407 89.5104 192.18L86.5287 180.661L83.5104 192.16C83.4171 192.413 83.2771 192.62 83.0904 192.78C82.9171 192.927 82.7104 193 82.4704 193ZM98.9399 193C98.6466 193 98.3999 192.907 98.1999 192.72C98.0133 192.52 97.9199 192.273 97.9199 191.98V183.08C97.9199 182.773 98.0133 182.527 98.1999 182.34C98.3999 182.153 98.6466 182.06 98.9399 182.06C99.2466 182.06 99.4933 182.153 99.6799 182.34C99.8666 182.527 99.9599 182.773 99.9599 183.08V191.98C99.9599 192.273 99.8666 192.52 99.6799 192.72C99.4933 192.907 99.2466 193 98.9399 193ZM98.9399 180.28C98.5799 180.28 98.2666 180.153 97.9999 179.9C97.7466 179.633 97.6199 179.32 97.6199 178.96C97.6199 178.6 97.7466 178.293 97.9999 178.04C98.2666 177.773 98.5799 177.64 98.9399 177.64C99.2999 177.64 99.6066 177.773 99.8599 178.04C100.127 178.293 100.26 178.6 100.26 178.96C100.26 179.32 100.127 179.633 99.8599 179.9C99.6066 180.153 99.2999 180.28 98.9399 180.28ZM109.099 183.94L103.46 191.387C103.323 191.543 103.255 191.768 103.255 192.06C103.255 192.687 103.568 193 104.195 193H111.015C111.642 193 111.955 192.687 111.955 192.06C111.955 191.433 111.642 191.12 111.015 191.12H105.928L111.551 183.672C111.687 183.516 111.755 183.292 111.755 183C111.755 182.373 111.442 182.06 110.815 182.06H103.995C103.368 182.06 103.055 182.373 103.055 183C103.055 183.627 103.368 183.94 103.995 183.94H109.099ZM118.725 193.08C117.752 193.08 116.879 192.84 116.105 192.36C115.332 191.867 114.719 191.207 114.265 190.38C113.825 189.54 113.605 188.593 113.605 187.54C113.605 186.487 113.845 185.54 114.325 184.7C114.819 183.86 115.479 183.2 116.305 182.72C117.145 182.227 118.085 181.98 119.125 181.98C120.165 181.98 121.099 182.227 121.925 182.72C122.752 183.2 123.405 183.86 123.885 184.7C124.379 185.54 124.625 186.487 124.625 187.54V192C124.625 192.293 124.525 192.54 124.325 192.74C124.139 192.927 123.899 193.02 123.605 193.02C123.312 193.02 123.065 192.927 122.865 192.74C122.679 192.54 122.585 192.293 122.585 192V191.258C122.235 191.689 121.822 192.056 121.345 192.36C120.572 192.84 119.699 193.08 118.725 193.08ZM119.125 191.28C119.805 191.28 120.412 191.12 120.945 190.8C121.479 190.467 121.899 190.02 122.205 189.46C122.512 188.887 122.665 188.247 122.665 187.54C122.665 186.82 122.512 186.18 122.205 185.62C121.899 185.047 121.479 184.6 120.945 184.28C120.412 183.947 119.805 183.78 119.125 183.78C118.459 183.78 117.852 183.947 117.305 184.28C116.772 184.6 116.345 185.047 116.025 185.62C115.719 186.18 115.565 186.82 115.565 187.54C115.565 188.247 115.719 188.887 116.025 189.46C116.345 190.02 116.772 190.467 117.305 190.8C117.852 191.12 118.459 191.28 119.125 191.28ZM129.661 192V186.16C129.661 185.547 129.855 185.04 130.241 184.64C130.641 184.24 131.181 183.967 131.861 183.82C132.541 183.673 133.308 183.687 134.161 183.86C134.335 183.9 134.495 183.907 134.641 183.88C134.788 183.853 134.915 183.793 135.021 183.7C135.141 183.593 135.221 183.447 135.261 183.26C135.355 182.9 135.201 182.593 134.801 182.34C134.415 182.073 133.821 181.94 133.021 181.94C132.221 181.94 131.488 182.127 130.821 182.5C130.375 182.75 129.988 183.06 129.661 183.429V183.06C129.661 182.727 129.575 182.48 129.401 182.32C129.241 182.147 128.995 182.06 128.661 182.06C128.341 182.06 128.095 182.147 127.921 182.32C127.748 182.493 127.661 182.74 127.661 183.06V192C127.661 192.333 127.748 192.587 127.921 192.76C128.095 192.92 128.341 193 128.661 193C128.995 193 129.241 192.913 129.401 192.74C129.575 192.567 129.661 192.32 129.661 192ZM141.547 193.08C140.507 193.08 139.567 192.84 138.727 192.36C137.9 191.867 137.24 191.2 136.747 190.36C136.267 189.52 136.027 188.573 136.027 187.52C136.027 186.467 136.247 185.527 136.687 184.7C137.14 183.86 137.754 183.2 138.527 182.72C139.3 182.227 140.174 181.98 141.147 181.98C141.934 181.98 142.66 182.147 143.327 182.48C143.994 182.8 144.554 183.24 145.007 183.8V178.4C145.007 178.093 145.1 177.847 145.287 177.66C145.487 177.473 145.734 177.38 146.027 177.38C146.334 177.38 146.58 177.473 146.767 177.66C146.954 177.847 147.047 178.093 147.047 178.4V187.52C147.047 188.573 146.8 189.52 146.307 190.36C145.827 191.2 145.174 191.867 144.347 192.36C143.52 192.84 142.587 193.08 141.547 193.08ZM141.547 191.28C142.227 191.28 142.834 191.12 143.367 190.8C143.9 190.467 144.32 190.013 144.627 189.44C144.934 188.867 145.087 188.227 145.087 187.52C145.087 186.8 144.934 186.16 144.627 185.6C144.32 185.04 143.9 184.6 143.367 184.28C142.834 183.947 142.227 183.78 141.547 183.78C140.88 183.78 140.274 183.947 139.727 184.28C139.194 184.6 138.767 185.04 138.447 185.6C138.14 186.16 137.987 186.8 137.987 187.52C137.987 188.227 138.14 188.867 138.447 189.44C138.767 190.013 139.194 190.467 139.727 190.8C140.274 191.12 140.88 191.28 141.547 191.28ZM106.25 46.25L105 49L103.75 46.25L101 45L103.75 43.75L105 41L106.25 43.75L109 45L106.25 46.25ZM95 44L97.5 49.5L103 52L97.5 54.5L95 60L92.5 54.5L87 52L92.5 49.5L95 44ZM103.75 57.75L105 55L106.25 57.75L109 59L106.25 60.25L105 63L103.75 60.25L101 59L103.75 57.75ZM132 119L130.75 116.25L128 115L130.75 113.75L132 111L133.25 113.75L136 115L133.25 116.25L132 119ZM139.5 119.5L142 114L144.5 119.5L150 122L144.5 124.5L142 130L139.5 124.5L134 122L139.5 119.5ZM132 125L133.25 127.75L136 129L133.25 130.25L132 133L130.75 130.25L128 129L130.75 127.75L132 125ZM93.0217 104.526L89.8054 110.958H117.438C119.34 110.958 120.896 112.515 120.896 114.417C120.896 116.319 119.34 117.875 117.438 117.875H98.4167V121.333H122.625C124.527 121.333 126.083 122.89 126.083 124.792C126.083 126.694 124.527 128.25 122.625 128.25H98.4167V131.708H119.167C121.069 131.708 122.625 133.265 122.625 135.167C122.625 137.069 121.069 138.625 119.167 138.625H98.4167V142.083H113.979C115.881 142.083 117.438 143.64 117.438 145.542C117.438 147.444 115.881 149 113.979 149H75.9375C71.165 149 67.2917 145.127 67.2917 140.354V122.267C67.2917 119.915 68.26 117.633 69.9892 116.007L89.8054 97.125L90.7046 97.5746C93.2638 98.8542 94.3012 101.967 93.0217 104.526ZM97.8979 94.7388C96.3071 92.7675 95.1658 92.0067 92.2608 90.6233L102.221 80.1446C103.535 78.7613 105.714 78.6921 107.097 80.0062C108.48 81.3204 108.55 83.4992 107.235 84.8825L97.8979 94.7388ZM100.353 104.042C100.665 102.14 100.457 99.7533 99.6617 97.8512L106.163 91.0383C107.478 89.655 109.656 89.5858 111.04 90.9C112.458 92.2142 112.492 94.3929 111.178 95.7763L103.327 104.042H100.353ZM59.6488 111.235L62.6921 114.105C63.3838 112.964 64.2138 111.927 65.2167 110.993L67.3263 108.987L79.8108 97.125L89.01 88.9287L102.083 75.1646C103.397 73.7812 103.327 71.6025 101.944 70.2883C100.561 68.9742 98.3821 69.0433 97.0679 70.4267L80.3988 87.995L77.8742 85.6087L90.9813 71.81C92.2954 70.4267 92.2262 68.2479 90.8429 66.9337C89.4596 65.6196 87.2808 65.6888 85.9667 67.0721L66.9458 87.1304L64.4904 80.3521C63.5221 77.6546 60.5479 76.2712 57.8504 77.2396L56.9167 77.5854V104.941C56.9167 107.327 57.9196 109.61 59.6488 111.235ZM145.75 85.4583C140.939 85.4583 136.78 82.7367 134.71 78.75H145.75L147.667 74.9167H133.445C133.349 74.2842 133.292 73.6517 133.292 73C133.292 72.3483 133.349 71.7158 133.445 71.0833H145.75L147.667 67.25H134.71C136.78 63.2633 140.958 60.5417 145.75 60.5417C148.836 60.5417 151.673 61.6725 153.858 63.5508L157.25 60.1583C154.203 57.4175 150.158 55.75 145.75 55.75C138.237 55.75 131.873 60.5608 129.497 67.25H122.75L120.833 71.0833H128.615C128.538 71.7158 128.5 72.3483 128.5 73C128.5 73.6517 128.538 74.2842 128.615 74.9167H122.75L120.833 78.75H129.497C131.873 85.4392 138.237 90.25 145.75 90.25C150.178 90.25 154.203 88.5825 157.25 85.8417L153.838 82.4492C151.673 84.3275 148.855 85.4583 145.75 85.4583ZM178.625 98.625C179.75 100.792 182.01 102.271 184.625 102.271C186.313 102.271 187.844 101.656 189.021 100.635L190.875 102.479C189.219 103.969 187.031 104.875 184.625 104.875C180.542 104.875 177.083 102.26 175.792 98.625H171.083L172.125 96.5417H175.313C175.271 96.1979 175.25 95.8542 175.25 95.5C175.25 95.1458 175.271 94.8021 175.313 94.4583H171.083L172.125 92.375H175.792C177.083 88.7396 180.542 86.125 184.625 86.125C187.021 86.125 189.219 87.0312 190.875 88.5208L189.031 90.3646C187.844 89.3438 186.302 88.7292 184.625 88.7292C182.021 88.7292 179.75 90.2083 178.625 92.375H185.667L184.625 94.4583H177.938C177.885 94.8021 177.854 95.1458 177.854 95.5C177.854 95.8542 177.885 96.1979 177.938 96.5417H185.667L184.625 98.625H178.625ZM159.75 109.792C158.286 109.792 157.02 108.963 156.39 107.75H159.75L160.333 106.583H156.005C155.976 106.391 155.958 106.198 155.958 106C155.958 105.802 155.976 105.609 156.005 105.417H159.75L160.333 104.25H156.39C157.02 103.037 158.292 102.208 159.75 102.208C160.689 102.208 161.553 102.552 162.218 103.124L163.25 102.092C162.323 101.257 161.092 100.75 159.75 100.75C159.702 100.75 159.654 100.751 159.606 100.752C160.9 100.006 162.14 99.1704 163.318 98.2517C166.642 99.9819 168.532 103.781 167.69 107.615C166.682 112.2 162.149 115.1 157.564 114.093C153.044 113.1 150.162 108.68 151.045 104.163C152.639 103.782 154.196 103.28 155.701 102.665C155.316 103.133 155.01 103.668 154.803 104.25H152.75L152.167 105.417H154.535C154.512 105.609 154.5 105.802 154.5 106C154.5 106.198 154.512 106.391 154.535 106.583H152.75L152.167 107.75H154.803C155.527 109.786 157.463 111.25 159.75 111.25C161.098 111.25 162.323 110.743 163.25 109.908L162.212 108.876C161.553 109.448 160.695 109.792 159.75 109.792ZM155.701 102.665C156.634 101.531 158.032 100.794 159.606 100.752C158.351 101.476 157.046 102.116 155.701 102.665ZM167.192 88.1624C165.396 90.9587 163.129 93.3839 160.527 95.3519C156.483 94.9055 152.617 96.8507 150.513 100.174C146.418 101.216 142.024 101.344 137.616 100.375C122.512 97.056 112.959 82.1215 116.278 67.0179C119.597 51.9143 134.532 42.3611 149.635 45.6802C164.739 48.9993 174.292 63.9338 170.973 79.0374C170.484 81.2637 169.742 83.3695 168.785 85.3313C168.171 86.2118 167.636 87.1582 167.192 88.1624ZM156.984 97.6361C156.1 97.8976 155.266 98.301 154.516 98.8255C155.358 98.469 156.182 98.0719 156.984 97.6361ZM136.758 104.282C140.895 105.191 145.021 105.255 148.956 104.589C148.34 109.879 151.822 114.879 157.134 116.046C162.798 117.291 168.399 113.708 169.643 108.044C169.78 107.42 169.859 106.796 169.883 106.178C172.197 108.857 175.365 110.838 179.088 111.656C188.258 113.671 197.326 107.871 199.341 98.7008C201.356 89.5307 195.556 80.4633 186.386 78.4482C182.322 77.5552 178.279 78.1969 174.86 79.9866L174.88 79.8959C178.673 62.6347 167.755 45.5666 150.494 41.7734C133.233 37.9802 116.165 48.8981 112.372 66.1594C108.578 83.4206 119.496 100.489 136.758 104.282ZM164.956 96.8852C165.291 97.0949 165.613 97.3225 165.919 97.5664C165.849 97.094 165.798 96.6166 165.767 96.1355C165.501 96.3902 165.23 96.6401 164.956 96.8852ZM167.769 94.0391C167.267 101.331 172.164 108.086 179.517 109.702C187.609 111.48 195.609 106.363 197.387 98.2715C199.165 90.1803 194.048 82.1796 185.956 80.4016C181.678 79.4614 177.425 80.4492 174.104 82.7851C172.749 87.0362 170.563 90.8352 167.769 94.0391Z" fill="url(#paint0_linear_9_2)"/>
</g>
<defs>
<linearGradient id="paint0_linear_9_2" x1="2.31274e-06" y1="230" x2="226" y2="8.68908e-06" gradientUnits="userSpaceOnUse">
<stop stop-color="#926F34"/>
<stop offset="1" stop-color="#DFBD69"/>
</linearGradient>
<clipPath id="clip0_9_2">
<rect width="226" height="230" fill="white"/>
</clipPath>
</defs>
</svg>
