<svg width="74" height="75" viewBox="0 0 74 75" fill="none" xmlns="http://www.w3.org/2000/svg">
<g clip-path="url(#clip0_3_4)">
<path d="M37 6.25C19.98 6.25 6.16669 20.25 6.16669 37.5C6.16669 54.75 19.98 68.75 37 68.75C54.02 68.75 67.8334 54.75 67.8334 37.5C67.8334 20.25 54.02 6.25 37 6.25ZM37 18.75C42.9509 18.75 47.7917 23.6562 47.7917 29.6875C47.7917 35.7187 42.9509 40.625 37 40.625C31.0492 40.625 26.2084 35.7187 26.2084 29.6875C26.2084 23.6562 31.0492 18.75 37 18.75ZM37 62.5C30.7409 62.5 23.3409 59.9375 18.0684 53.5C23.2792 49.375 29.8467 46.875 37 46.875C44.1534 46.875 50.7209 49.375 55.9317 53.5C50.6592 59.9375 43.2592 62.5 37 62.5Z" fill="url(#paint0_linear_3_4)"/>
<path d="M37 6.25C19.98 6.25 6.16669 20.25 6.16669 37.5C6.16669 54.75 19.98 68.75 37 68.75C54.02 68.75 67.8334 54.75 67.8334 37.5C67.8334 20.25 54.02 6.25 37 6.25ZM37 18.75C42.9509 18.75 47.7917 23.6562 47.7917 29.6875C47.7917 35.7187 42.9509 40.625 37 40.625C31.0492 40.625 26.2084 35.7187 26.2084 29.6875C26.2084 23.6562 31.0492 18.75 37 18.75ZM37 62.5C30.7409 62.5 23.3409 59.9375 18.0684 53.5C23.2792 49.375 29.8467 46.875 37 46.875C44.1534 46.875 50.7209 49.375 55.9317 53.5C50.6592 59.9375 43.2592 62.5 37 62.5Z" fill="url(#paint1_linear_3_4)"/>
</g>
<defs>
<linearGradient id="paint0_linear_3_4" x1="37" y1="6.25" x2="37" y2="68.75" gradientUnits="userSpaceOnUse">
<stop stop-color="#008CFF"/>
<stop offset="1" stop-color="#008CFF" stop-opacity="0"/>
</linearGradient>
<linearGradient id="paint1_linear_3_4" x1="37" y1="69" x2="37" y2="6" gradientUnits="userSpaceOnUse">
<stop stop-color="#6942EF"/>
<stop offset="1" stop-color="#6942EF" stop-opacity="0"/>
</linearGradient>
<clipPath id="clip0_3_4">
<rect width="74" height="75" fill="white"/>
</clipPath>
</defs>
</svg>
