<svg width="102" height="102" viewBox="0 0 102 102" fill="none" xmlns="http://www.w3.org/2000/svg">
<path d="M56.0834 25.7042H45.9167V46.0375H25.5834V56.2042H45.9167V76.5375H56.0834V56.2042H76.4167V46.0375H56.0834V25.7042ZM51.0001 0.287506C22.9401 0.287506 0.166748 23.0608 0.166748 51.1208C0.166748 79.1808 22.9401 101.954 51.0001 101.954C79.0601 101.954 101.833 79.1808 101.833 51.1208C101.833 23.0608 79.0601 0.287506 51.0001 0.287506ZM51.0001 91.7875C28.5826 91.7875 10.3334 73.5383 10.3334 51.1208C10.3334 28.7033 28.5826 10.4542 51.0001 10.4542C73.4176 10.4542 91.6667 28.7033 91.6667 51.1208C91.6667 73.5383 73.4176 91.7875 51.0001 91.7875Z" fill="url(#paint0_linear_56_1852)"/>
<defs>
<linearGradient id="paint0_linear_56_1852" x1="51.0001" y1="0.287506" x2="51.0001" y2="101.954" gradientUnits="userSpaceOnUse">
<stop stop-color="#008CFF"/>
<stop offset="1" stop-color="#9900DD"/>
</linearGradient>
</defs>
</svg>
